<?xml version="1.0" encoding="UTF-8"?>
<svg height="128px" viewBox="0 0 128 128" width="128px" xmlns="http://www.w3.org/2000/svg" xmlns:xlink="http://www.w3.org/1999/xlink">
    <linearGradient id="a" gradientUnits="userSpaceOnUse">
        <stop offset="0" stop-color="#a51d2d"/>
        <stop offset="0.0500001" stop-color="#e01b24"/>
        <stop offset="0.099807" stop-color="#a51d2d"/>
        <stop offset="0.900001" stop-color="#a51d2d"/>
        <stop offset="0.950001" stop-color="#e01b24"/>
        <stop offset="1" stop-color="#a51d2d"/>
    </linearGradient>
    <linearGradient id="b" gradientTransform="matrix(0.196431 0 0 0.34211 2.596558 273.742401)" x1="88.595886" x2="536.595886" xlink:href="#a" y1="-449.394012" y2="-449.394012"/>
    <linearGradient id="c" gradientUnits="userSpaceOnUse" x1="36.80608948554" x2="91.19351451287" y1="46.73789259865" y2="46.73789259865">
        <stop offset="0" stop-color="#e01b24"/>
        <stop offset="0.01" stop-color="#b31c2a"/>
        <stop offset="0.47" stop-color="#c21c28"/>
        <stop offset="0.5" stop-color="#e01b24"/>
        <stop offset="0.534493" stop-color="#c21c28"/>
        <stop offset="0.99" stop-color="#b31c2a"/>
        <stop offset="1" stop-color="#e01b24"/>
    </linearGradient>
    <linearGradient id="d" gradientTransform="matrix(0.0750328 0 0 0.130679 40.545004 160.460429)" x1="88.595886" x2="536.595886" xlink:href="#a" y1="-449.394012" y2="-449.394012"/>
    <path d="m 28 39.292969 h 72 c 4.417969 0 8 3.582031 8 8 v 64.707031 c 0 4.417969 -3.582031 8 -8 8 h -72 c -4.417969 0 -8 -3.582031 -8 -8 v -64.707031 c 0 -4.417969 3.582031 -8 8 -8 z m 0 0" fill="url(#b)"/>
    <path d="m 20.910156 8.414062 l 42.179688 19.171876 c 0.578125 0.261718 1.242187 0.261718 1.820312 0 l 42.179688 -19.171876 c 0.199218 -0.09375 0.429687 -0.074218 0.617187 0.042969 c 0.183594 0.117188 0.292969 0.324219 0.292969 0.542969 v 99 c 0 4.417969 -3.582031 8 -8 8 h -72 c -4.417969 0 -8 -3.582031 -8 -8 v -99 c 0 -0.21875 0.109375 -0.425781 0.292969 -0.542969 c 0.1875 -0.117187 0.417969 -0.136719 0.617187 -0.042969 z m 0 0" fill="#ed333b"/>
    <path d="m 37.367188 38.769531 l 26.070312 11.851563 c 0.355469 0.160156 0.769531 0.160156 1.125 0 l 26.070312 -11.851563 c 0.121094 -0.054687 0.265626 -0.042969 0.378907 0.027344 c 0.113281 0.074219 0.183593 0.199219 0.183593 0.335937 v 61.1875 c 0 2.730469 -2.214843 4.945313 -4.945312 4.945313 h -44.5 c -2.730469 0 -4.945312 -2.214844 -4.945312 -4.945313 v -61.1875 c 0 -0.136718 0.070312 -0.261718 0.183593 -0.335937 c 0.113281 -0.070313 0.257813 -0.082031 0.378907 -0.027344 z m 0 0" fill="#c01c28"/>
    <path d="m 37.214844 38.734375 c -0.109375 -0.003906 -0.210938 0.039063 -0.289063 0.113281 c -0.078125 0.074219 -0.121093 0.179688 -0.121093 0.285156 v 4 c 0 -0.136718 0.070312 -0.261718 0.183593 -0.335937 s 0.257813 -0.082031 0.378907 -0.027344 l 26.070312 11.851563 c 0.355469 0.160156 0.765625 0.160156 1.125 0 l 26.070312 -11.851563 c 0.121094 -0.054687 0.265626 -0.046875 0.378907 0.027344 s 0.183593 0.199219 0.183593 0.335937 v -4 c 0 -0.136718 -0.070312 -0.261718 -0.183593 -0.335937 s -0.257813 -0.082031 -0.378907 -0.027344 l -26.070312 11.851563 c -0.359375 0.160156 -0.769531 0.160156 -1.125 0 l -26.070312 -11.851563 c -0.046876 -0.023437 -0.097657 -0.035156 -0.152344 -0.035156 z m 0 0" fill="url(#c)"/>
    <path d="m 47.539062 59.109375 l 16.113282 7.324219 c 0.222656 0.101562 0.472656 0.101562 0.695312 0 l 16.113282 -7.324219 c 0.074218 -0.035156 0.164062 -0.027344 0.234374 0.015625 c 0.070313 0.046875 0.113282 0.125 0.113282 0.207031 v 37.816407 c 0 1.6875 -1.371094 3.058593 -3.058594 3.058593 h -27.5 c -1.6875 0 -3.058594 -1.371093 -3.058594 -3.058593 v -37.816407 c 0 -0.082031 0.042969 -0.160156 0.113282 -0.207031 c 0.070312 -0.042969 0.160156 -0.050781 0.234374 -0.015625 z m 0 0" fill="url(#d)"/>
    <path d="m 47.539062 55.109375 l 16.113282 7.324219 c 0.222656 0.101562 0.472656 0.101562 0.695312 0 l 16.113282 -7.324219 c 0.074218 -0.035156 0.164062 -0.027344 0.234374 0.015625 c 0.070313 0.046875 0.113282 0.125 0.113282 0.207031 v 37.816407 c 0 1.6875 -1.371094 3.058593 -3.058594 3.058593 h -27.5 c -1.6875 0 -3.058594 -1.371093 -3.058594 -3.058593 v -37.816407 c 0 -0.082031 0.042969 -0.160156 0.113282 -0.207031 c 0.070312 -0.042969 0.160156 -0.050781 0.234374 -0.015625 z m 0 0" fill="#ed333b"/>
</svg>
