<?xml version="1.0" encoding="UTF-8"?>
<svg height="16px" viewBox="0 0 16 16" width="16px" xmlns="http://www.w3.org/2000/svg">
    <g fill="#222222">
        <path d="m 2.050781 0.363281 c -0.273437 0.035157 -0.523437 0.289063 -0.523437 0.609375 v 12.953125 c 0 0.941407 0.707031 1.714844 1.566406 1.714844 h 9.8125 c 0.859375 0 1.566406 -0.773437 1.566406 -1.714844 v -12.953125 c 0 -0.425781 -0.441406 -0.738281 -0.800781 -0.5625 l -5.671875 2.816406 l -5.671875 -2.816406 c -0.089844 -0.042968 -0.183594 -0.054687 -0.277344 -0.046875 z m 0.433594 1.273438 l 5.195313 2.574219 c 0.203124 0.101562 0.4375 0.101562 0.640624 0 l 5.195313 -2.574219 v 12.289062 c 0 0.375 -0.269531 0.667969 -0.609375 0.667969 h -9.8125 c -0.339844 0 -0.609375 -0.292969 -0.609375 -0.667969 z m 0 0"/>
        <path d="m -347.098955 180.417599 l 42.171185 19.176707 c 0.603109 0.255122 1.25261 0.255122 1.855718 0 l 42.171186 -19.176707 c 0.185571 -0.08504 0.417536 -0.08504 0.603108 0.042521 s 0.278358 0.340163 0.278358 0.552765 v 79.810815 c 0 4.422123 -3.572257 7.993838 -7.979587 7.993838 h -72.001848 c -4.40733 0 -7.979586 -3.571715 -7.979586 -7.993838 v -79.810815 c 0 -0.212602 0.092786 -0.425204 0.278357 -0.552765 c 0.185572 -0.127561 0.417537 -0.127561 0.603109 -0.042521 z m 0 0" stroke="#222222" stroke-width="11.3701" transform="matrix(0.0841992 0 0 0.0918676 33.596558 -12.113602)"/>
    </g>
</svg>
